<svg width="138" height="154" viewBox="0 0 138 154" fill="none" xmlns="http://www.w3.org/2000/svg">
<path d="M31.096 43.5712C29.3271 38.167 24.3986 33.6921 16.719 36.2058C13.0214 37.416 10.0272 39.8131 8.20958 43.3996C6.39193 46.9861 6.31446 49.6356 7.35596 58.2694C7.6422 60.7474 8.08361 63.6994 8.79735 65.88C10.3179 70.5257 15.106 74.7316 22.833 72.2025C26.1987 71.1009 29.3188 68.7676 31.1364 65.1811C33.0497 61.4058 33.147 58.015 32.4202 52.4273L31.7839 47.5971L19.1743 51.7244L20.083 58.6697L24.8709 57.1026L24.9614 57.8602C25.3683 61.3483 23.7911 64.2263 21.0891 65.1107C19.4299 65.6538 17.4587 65.5642 16.5122 62.6726C15.9381 60.9186 15.4812 57.9191 15.2251 55.6937C14.6388 50.3748 14.3991 48.0391 15.4515 45.9627C15.866 45.1447 16.8037 43.8406 18.5103 43.282C20.6909 42.5683 22.3562 43.8076 23.2268 46.1468L31.096 43.5712Z" fill="white"/>
<path d="M43.3698 27.7975L35.5007 30.3732L39.7693 66.3441L47.6385 63.7685L43.3698 27.7975Z" fill="white"/>
<path d="M74.712 28.3504C73.0052 23.1359 68.9084 19.4384 61.8451 21.7503L49.8517 25.6759L54.1203 61.6469L61.9895 59.0712L60.4074 45.4185L63.3939 44.441L71.1386 56.0766L79.7663 53.2526L70.7476 40.9319C75.0898 37.2014 75.9377 32.0954 74.712 28.3504ZM66.935 31.3682C67.385 32.743 67.4153 35.8821 63.6703 37.1078L59.5461 38.4578L58.6425 30.5661L62.8141 29.2007C64.7577 28.5645 66.2523 29.2824 66.935 31.3682Z" fill="white"/>
<path d="M104.428 37.518L90.7279 42.0022L87.3025 13.4178L79.4333 15.9935L83.702 51.9644L105.319 44.8891L104.428 37.518Z" fill="white"/>
<path d="M127.356 4.66393C124.323 2.61269 120.097 2.36892 115.878 3.74985C107.772 6.40312 103.494 12.7366 105.915 20.1317C106.768 22.739 109.099 26.3322 116.499 25.8519L119.276 25.6777C121.28 25.5466 122.477 25.837 123.067 27.6384C123.703 29.582 121.986 32.0333 118.905 33.0419C115.966 34.0039 113.347 34.0212 111.068 32.6681L107.008 39.5075C111.049 41.9113 114.834 42.0895 120.475 40.2431C127.68 37.8847 133.389 32.3949 130.72 24.2413C129.137 19.406 126.294 17.2927 119.872 17.7153L117.094 17.8895C115.596 17.9602 113.955 18.0775 113.365 16.2761C112.806 14.5696 114.003 11.9734 117.227 10.9183C119.455 10.1891 121.443 10.0106 123.44 11.2991L127.356 4.66393Z" fill="white"/>
<path d="M71.0097 70.1398C69.3495 65.0675 64.1322 61.4744 57.1637 63.7552C54.035 64.7793 50.646 67.2531 48.8603 70.7767C46.7556 74.9295 47.2514 79.4907 47.9903 85.7568C48.3972 89.2449 48.8877 91.866 49.3843 93.3829C51.0445 98.4553 56.2618 102.048 63.2303 99.7675C66.359 98.7434 69.7479 96.2696 71.5337 92.7461C73.6383 88.5933 73.1426 84.0321 72.4037 77.766C71.9967 74.2778 71.5062 71.6568 71.0097 70.1398ZM63.2629 73.4102C63.837 75.1642 64.2776 78.2739 64.5345 80.3416C65.2269 86.4655 65.1847 88.4212 64.5142 89.9003C63.9712 91.1277 62.9559 92.1947 61.6286 92.6292C59.7324 93.2498 57.8913 92.4354 57.131 90.1126C56.5569 88.3586 56.1164 85.2488 55.8595 83.1811C55.1671 77.0572 55.2093 75.1015 55.8798 73.6225C56.4228 72.3951 57.4381 71.328 58.7654 70.8936C60.6616 70.2729 62.5027 71.0874 63.2629 73.4102Z" fill="white"/>
<path d="M100.888 49.7586L93.0188 52.3343L95.2674 71.0697L82.3054 55.841L75.7635 57.9822L80.0321 93.9531L87.9013 91.3775L85.7157 72.674L98.6148 87.8708L105.157 85.7296L100.888 49.7586Z" fill="white"/>
<path d="M45.3518 114.044C42.3187 111.992 38.0927 111.749 33.8737 113.13C25.7675 115.783 21.49 122.116 23.9105 129.511C24.7639 132.119 27.0947 135.712 34.495 135.232L37.2721 135.057C39.2761 134.926 40.4733 135.217 41.0629 137.018C41.699 138.962 39.9822 141.413 36.9009 142.422C33.9618 143.384 31.3433 143.401 29.0635 142.048L25.0041 148.887C29.0449 151.291 32.8295 151.469 38.4707 149.623C45.6762 147.264 51.3845 141.775 48.7157 133.621C47.133 128.786 44.2895 126.672 37.8674 127.095L35.0903 127.269C33.5915 127.34 31.9504 127.457 31.3608 125.656C30.8022 123.949 31.9993 121.353 35.2228 120.298C37.4508 119.569 39.4393 119.39 41.4355 120.679L45.3518 114.044Z" fill="white"/>
<path d="M77.078 99.3032L67.36 102.484L59.7025 118.374L58.1635 105.494L50.3892 108.039L54.6578 144.01L62.4322 141.465L61.0122 129.911L63.4495 125.492L73.5723 137.819L82.1999 134.995L68.1889 118.325L77.078 99.3032Z" fill="white"/>
<path d="M88.8121 95.4624L80.943 98.0381L85.2116 134.009L93.0808 131.433L88.8121 95.4624Z" fill="white"/>
<path d="M117.061 90.5725C114.028 88.5212 109.802 88.2774 105.583 89.6584C97.4763 92.3116 93.1989 98.6451 95.6194 106.04C96.4728 108.648 98.8035 112.241 106.204 111.76L108.981 111.586C110.985 111.455 112.182 111.746 112.772 113.547C113.408 115.491 111.691 117.942 108.61 118.95C105.671 119.912 103.052 119.93 100.772 118.577L96.713 125.416C100.754 127.82 104.538 127.998 110.18 126.152C117.385 123.793 123.093 118.303 120.425 110.15C118.842 105.315 115.998 103.201 109.576 103.624L106.799 103.798C105.3 103.869 103.659 103.986 103.07 102.185C102.511 100.478 103.708 97.882 106.932 96.8269C109.16 96.0976 111.148 95.9191 113.144 97.2076L117.061 90.5725Z" fill="white"/>
</svg>
