<svg width="376" height="508" viewBox="0 0 376 508" fill="none" xmlns="http://www.w3.org/2000/svg">
<path d="M83.5742 205.039C78.7118 190.183 65.1636 177.882 44.0532 184.792C33.8889 188.119 25.6581 194.708 20.6615 204.567C15.665 214.426 15.452 221.709 18.315 245.443C19.1019 252.254 20.3152 260.369 22.2773 266.364C26.4572 279.134 39.6192 290.696 60.86 283.744C70.1121 280.715 78.6888 274.301 83.6853 264.442C88.9449 254.064 89.2123 244.744 87.2144 229.383L85.4653 216.106L50.8025 227.451L53.3005 246.543L66.4619 242.235L66.7108 244.318C67.8294 253.906 63.4938 261.818 56.0661 264.249C51.5052 265.742 46.0866 265.496 43.4848 257.547C41.9066 252.725 40.6506 244.48 39.9467 238.362C38.335 223.741 37.6761 217.32 40.5688 211.613C41.7084 209.364 44.2861 205.779 48.9773 204.244C54.9716 202.282 59.5493 205.689 61.9425 212.119L83.5742 205.039Z" fill="#FF0000"/>
<path d="M117.314 161.678L95.6823 168.759L107.416 267.64L129.048 260.559L117.314 161.678Z" fill="#FF0000"/>
<path d="M203.471 163.198C198.779 148.864 187.517 138.7 168.101 145.055L135.132 155.846L146.866 254.727L168.498 247.647L164.149 210.117L172.358 207.43L193.648 239.415L217.364 231.652L192.573 197.784C204.509 187.529 206.84 173.493 203.471 163.198ZM182.093 171.494C183.329 175.273 183.413 183.902 173.118 187.272L161.781 190.982L159.297 169.289L170.765 165.535C176.107 163.787 180.216 165.76 182.093 171.494Z" fill="#FF0000"/>
<path d="M285.157 188.399L247.497 200.726L238.081 122.15L216.449 129.23L228.183 228.111L287.605 208.661L285.157 188.399Z" fill="#FF0000"/>
<path d="M348.184 98.0861C339.846 92.4474 328.23 91.7773 316.632 95.5734C294.349 102.867 282.59 120.277 289.244 140.606C291.59 147.773 297.997 157.65 318.34 156.33L325.974 155.851C331.483 155.491 334.774 156.289 336.394 161.241C338.143 166.584 333.424 173.322 324.953 176.095C316.874 178.739 309.676 178.787 303.409 175.067L292.25 193.868C303.358 200.476 313.762 200.966 329.269 195.89C349.076 189.407 364.767 174.316 357.431 151.903C353.081 138.611 345.264 132.802 327.61 133.963L319.976 134.442C315.856 134.636 311.345 134.959 309.724 130.007C308.189 125.316 311.479 118.179 320.34 115.279C326.465 113.274 331.931 112.784 337.419 116.326L348.184 98.0861Z" fill="#FF0000"/>
<path d="M193.293 278.073C188.73 264.13 174.388 254.253 155.232 260.523C146.631 263.338 137.316 270.138 132.407 279.824C126.621 291.24 127.984 303.778 130.015 321.003C131.134 330.592 132.482 337.797 133.847 341.967C138.411 355.91 152.753 365.787 171.909 359.517C180.509 356.702 189.825 349.902 194.734 340.216C200.519 328.8 199.157 316.262 197.125 299.037C196.007 289.448 194.658 282.243 193.293 278.073ZM171.998 287.063C173.576 291.885 174.788 300.433 175.494 306.117C177.397 322.951 177.281 328.327 175.438 332.393C173.945 335.767 171.154 338.7 167.506 339.895C162.293 341.601 157.232 339.362 155.142 332.977C153.564 328.155 152.353 319.607 151.647 313.923C149.744 297.089 149.86 291.713 151.703 287.647C153.195 284.273 155.986 281.34 159.635 280.145C164.847 278.439 169.908 280.678 171.998 287.063Z" fill="#FF0000"/>
<path d="M275.426 222.047L253.795 229.128L259.976 280.629L224.344 238.767L206.361 244.653L218.095 343.534L239.727 336.454L233.719 285.04L269.177 326.814L287.16 320.928L275.426 222.047Z" fill="#FF0000"/>
<path d="M122.762 398.761C114.424 393.122 102.807 392.452 91.2095 396.248C68.9262 403.542 57.1679 420.952 63.8217 441.281C66.1676 448.448 72.5746 458.325 92.9176 457.005L100.552 456.526C106.06 456.166 109.351 456.964 110.972 461.916C112.721 467.259 108.001 473.997 99.5311 476.77C91.4518 479.414 84.2538 479.462 77.9868 475.742L66.8279 494.543C77.9355 501.151 88.3393 501.641 103.846 496.565C123.654 490.082 139.345 474.991 132.009 452.578C127.658 439.286 119.842 433.477 102.188 434.638L94.554 435.117C90.4337 435.312 85.9226 435.634 84.3018 430.682C82.7663 425.991 86.057 418.854 94.9182 415.954C101.043 413.949 106.509 413.459 111.996 417.001L122.762 398.761Z" fill="#FF0000"/>
<path d="M209.974 358.241L183.261 366.985L162.211 410.664L157.98 375.259L136.609 382.254L148.343 481.135L169.714 474.14L165.811 442.38L172.511 430.232L200.337 464.117L224.054 456.354L185.539 410.53L209.974 358.241Z" fill="#FF0000"/>
<path d="M242.23 347.683L220.599 354.763L232.333 453.644L253.965 446.564L242.23 347.683Z" fill="#FF0000"/>
<path d="M319.883 334.241C311.545 328.602 299.928 327.932 288.331 331.728C266.048 339.022 254.289 356.432 260.943 376.761C263.289 383.928 269.696 393.805 290.039 392.485L297.673 392.006C303.181 391.645 306.473 392.444 308.093 397.396C309.842 402.738 305.123 409.477 296.652 412.249C288.573 414.894 281.375 414.941 275.108 411.222L263.949 430.023C275.057 436.63 285.461 437.121 300.968 432.045C320.775 425.562 336.466 410.471 329.13 388.057C324.78 374.766 316.963 368.956 299.309 370.118L291.675 370.597C287.555 370.791 283.044 371.114 281.423 366.162C279.888 361.471 283.178 354.334 292.039 351.434C298.164 349.429 303.63 348.938 309.118 352.48L319.883 334.241Z" fill="#FF0000"/>
<path d="M101.155 130.077L101.521 134L104.227 133.748L103.874 129.963L105.471 129.814L105.824 133.598L111.184 133.098L111.343 134.797L100.083 135.848L99.5581 130.226L101.155 130.077Z" fill="black"/>
<path d="M106.93 122.135C105.901 122.076 105.048 121.657 104.369 120.879C103.691 120.101 103.382 119.183 103.444 118.125C103.505 117.062 103.921 116.182 104.691 115.483C105.459 114.794 106.373 114.48 107.431 114.542C108.498 114.604 109.371 115.024 110.05 115.802C110.723 116.585 111.029 117.515 110.966 118.592C110.904 119.66 110.486 120.533 109.713 121.212C108.949 121.891 108.022 122.199 106.93 122.135ZM107.057 120.455C107.769 120.497 108.343 120.34 108.779 119.983C109.221 119.618 109.461 119.116 109.498 118.477C109.535 117.834 109.358 117.307 108.966 116.898C108.574 116.489 108.032 116.264 107.34 116.224C106.648 116.184 106.083 116.344 105.647 116.705C105.205 117.071 104.965 117.573 104.928 118.211C104.891 118.84 105.071 119.362 105.468 119.776C105.864 120.19 106.394 120.417 107.057 120.455ZM101.225 120.578C100.942 120.562 100.707 120.445 100.519 120.229C100.326 120.012 100.238 119.76 100.254 119.473C100.271 119.185 100.388 118.945 100.605 118.752C100.816 118.559 101.066 118.471 101.354 118.487C101.646 118.504 101.889 118.621 102.082 118.838C102.269 119.064 102.355 119.316 102.338 119.594C102.321 119.886 102.205 120.129 101.988 120.322C101.762 120.509 101.507 120.595 101.225 120.578ZM101.402 117.522C101.12 117.505 100.884 117.389 100.696 117.173C100.504 116.951 100.416 116.699 100.432 116.416C100.449 116.124 100.566 115.884 100.782 115.696C100.994 115.503 101.244 115.414 101.532 115.431C101.824 115.448 102.067 115.565 102.259 115.782C102.447 116.008 102.532 116.26 102.516 116.538C102.5 116.825 102.383 117.065 102.166 117.258C101.95 117.451 101.695 117.539 101.402 117.522Z" fill="black"/>
<path d="M104.988 105.95L105.309 104.333L105.934 104.457C105.682 104.099 105.521 103.793 105.452 103.54C105.379 103.282 105.374 102.992 105.438 102.671C105.522 102.245 105.75 101.827 106.12 101.418L107.453 102.452C107.172 102.714 107.002 102.992 106.944 103.284C106.769 104.165 107.347 104.738 108.679 105.002L112.307 105.723L111.986 107.339L104.988 105.95Z" fill="black"/>
<path d="M108.322 78.4053L109.021 76.905L120.234 82.1315L119.534 83.6318L118.857 83.3162C119.158 84.173 119.135 84.9731 118.789 85.7166C118.376 86.6017 117.711 87.1858 116.792 87.4688C115.863 87.7412 114.904 87.6473 113.917 87.1873C112.953 86.7376 112.282 86.0722 111.906 85.1913C111.524 84.3127 111.536 83.4375 111.942 82.5656C112.295 81.8089 112.921 81.2762 113.819 80.9675L108.322 78.4053ZM114.629 85.6605C115.249 85.9493 115.831 86.0185 116.375 85.8681C116.928 85.7109 117.325 85.3735 117.566 84.8557C117.824 84.3025 117.842 83.7668 117.62 83.2486C117.385 82.7242 116.964 82.3207 116.358 82.0381C115.752 81.7555 115.172 81.6927 114.62 81.8499C114.076 82.0112 113.677 82.364 113.423 82.9084C113.184 83.4217 113.178 83.9418 113.407 84.4685C113.642 84.9929 114.049 85.3902 114.629 85.6605Z" fill="black"/>
<path d="M119.331 69.3487L125.339 73.196L124.45 74.5838L118.443 70.7364L119.331 69.3487ZM115.81 69.3463C115.568 69.191 115.415 68.9682 115.351 68.6782C115.288 68.3882 115.335 68.1198 115.493 67.8731C115.653 67.6222 115.879 67.465 116.169 67.4015C116.455 67.3353 116.723 67.3825 116.974 67.5431C117.225 67.7038 117.382 67.9291 117.445 68.2191C117.512 68.5051 117.464 68.7735 117.304 69.0243C117.143 69.2751 116.918 69.4323 116.628 69.4959C116.338 69.5594 116.065 69.5096 115.81 69.3463Z" fill="black"/>
<path d="M133.827 61.7025C134.084 61.9203 134.302 62.1206 134.48 62.3034C134.664 62.4857 134.819 62.6548 134.942 62.8109C135.276 63.2476 135.48 63.721 135.553 64.2311C135.703 65.2027 135.413 66.1187 134.684 66.9791C134.068 67.7055 133.366 68.1376 132.577 68.2755C131.764 68.4188 130.971 68.2262 130.196 67.6977L131.266 66.4349C131.575 66.6138 131.85 66.7089 132.09 66.7203C132.65 66.7468 133.141 66.5105 133.564 66.0114C134.344 65.0913 134.17 64.153 133.041 63.1964L132.281 62.5524C132.369 63.4841 132.136 64.2758 131.583 64.9277C130.955 65.669 130.172 66.0488 129.235 66.0673C128.287 66.0831 127.405 65.7454 126.59 65.054C125.796 64.3816 125.31 63.5885 125.13 62.6749C124.946 61.6993 125.185 60.8203 125.848 60.0381C126.429 59.3527 127.167 58.9991 128.063 58.9771L127.448 58.4562L128.514 57.199L133.827 61.7025ZM130.223 60.7216C129.694 60.2733 129.151 60.0565 128.595 60.0713C128.028 60.0834 127.555 60.313 127.176 60.76C126.772 61.2368 126.63 61.763 126.75 62.3385C126.855 62.8564 127.159 63.3285 127.662 63.7547C128.157 64.1746 128.669 64.3939 129.197 64.4127C129.774 64.4344 130.266 64.2049 130.673 63.7244C131.081 63.2439 131.228 62.7156 131.114 62.1395C131.016 61.6141 130.718 61.1415 130.223 60.7216Z" fill="black"/>
<path d="M146.845 42.5553L146.156 43.9361C145.726 43.7027 145.382 43.678 145.123 43.8621C145 43.9499 144.924 44.0667 144.896 44.2125C144.865 44.3543 144.895 44.4889 144.986 44.6162C145.144 44.839 145.56 44.8757 146.233 44.7263C147.163 44.5257 147.843 44.4669 148.274 44.5499C148.705 44.6329 149.076 44.8932 149.387 45.3307C149.787 45.8916 149.914 46.5082 149.769 47.1806C149.622 47.8246 149.265 48.3491 148.696 48.754C147.721 49.4478 146.693 49.4638 145.61 48.8019L146.378 47.4554C146.735 47.6205 146.982 47.7112 147.12 47.7273C147.39 47.7623 147.639 47.6992 147.866 47.5378C148.319 47.2149 148.399 46.8467 148.104 46.433C147.934 46.1943 147.601 46.0962 147.103 46.1385C146.92 46.1672 146.738 46.1978 146.558 46.2304C146.377 46.2631 146.193 46.2951 146.006 46.3266C145.48 46.4132 145.069 46.4177 144.774 46.34C144.399 46.2418 144.075 46.0017 143.803 45.6199C143.444 45.1147 143.319 44.5738 143.43 43.9973C143.549 43.4151 143.861 42.9442 144.367 42.5846C145.11 42.055 145.937 42.0453 146.845 42.5553Z" fill="black"/>
<path d="M155.192 39.8754C154.724 38.9577 154.654 38.0094 154.982 37.0306C155.31 36.0518 155.946 35.3215 156.89 34.8399C157.838 34.356 158.808 34.2694 159.8 34.58C160.783 34.8951 161.516 35.5246 161.997 36.4683C162.483 37.4208 162.562 38.3864 162.234 39.3653C161.899 40.342 161.251 41.0756 160.29 41.5661C159.338 42.0522 158.373 42.1333 157.396 41.8094C156.424 41.4943 155.69 40.8496 155.192 39.8754ZM156.706 39.1357C157.03 39.7707 157.456 40.1864 157.984 40.383C158.523 40.5795 159.077 40.5323 159.647 40.2415C160.221 39.9486 160.586 39.5295 160.74 38.9845C160.895 38.4395 160.815 37.8582 160.5 37.2406C160.185 36.623 159.761 36.2171 159.229 36.0227C158.69 35.8263 158.136 35.8734 157.566 36.1642C157.005 36.4505 156.646 36.8695 156.489 37.4211C156.332 37.9727 156.404 38.5442 156.706 39.1357Z" fill="black"/>
<path d="M168.469 29.695L170.05 29.2316L170.236 29.8641C170.447 29.4562 170.644 29.1645 170.826 28.9889C171.021 28.8044 171.292 28.6614 171.639 28.5598C172.412 28.3332 173.123 28.4914 173.77 29.0343C174.069 28.214 174.643 27.6795 175.491 27.431C177.032 26.9792 178.077 27.6881 178.625 29.5577L179.865 33.7889L178.277 34.2544L177.162 30.452C176.97 29.796 176.755 29.3554 176.516 29.1303C176.271 28.9019 175.961 28.8427 175.586 28.9525C175.15 29.0802 174.879 29.3376 174.774 29.7247C174.673 30.1103 174.729 30.6663 174.942 31.3926L175.978 34.928L174.39 35.3935L173.282 31.6121C172.925 30.3939 172.395 29.8877 171.692 30.0937C171.247 30.2241 170.97 30.4859 170.861 30.879C170.757 31.2708 170.81 31.8251 171.02 32.542L172.056 36.0774L170.475 36.5409L168.469 29.695Z" fill="black"/>
<path d="M242.469 26.3689L237.806 37.8269L236.28 37.2057L240.943 25.7477L242.469 26.3689Z" fill="black"/>
<path d="M252.69 37.2209L254.126 38.0433L250.582 44.2343L249.145 43.4119L249.516 42.7635C248.612 42.9772 247.821 42.8899 247.143 42.5018C246.287 42.0117 245.756 41.2973 245.551 40.3583C245.358 39.4092 245.531 38.4621 246.072 37.5171C246.603 36.5891 247.324 35.9747 248.233 35.6738C249.142 35.3729 250.014 35.4614 250.849 35.9393C251.57 36.3518 252.046 37.0184 252.278 37.9391L252.69 37.2209ZM247.534 38.3541C247.194 38.9473 247.077 39.5214 247.181 40.0762C247.292 40.6402 247.595 41.0641 248.09 41.3479C248.62 41.6511 249.152 41.714 249.687 41.5363C250.23 41.346 250.667 40.9606 250.999 40.38C251.332 39.7995 251.442 39.2272 251.332 38.6633C251.217 38.1078 250.899 37.6809 250.377 37.3825C249.886 37.1011 249.368 37.0522 248.824 37.2359C248.282 37.4262 247.852 37.799 247.534 38.3541ZM250.061 33.0998C250.202 32.854 250.411 32.6952 250.688 32.6233C250.968 32.5473 251.233 32.5808 251.483 32.7239C251.733 32.8671 251.896 33.0786 251.972 33.3584C252.051 33.634 252.019 33.8969 251.875 34.1469C251.73 34.4011 251.517 34.5663 251.237 34.6424C250.951 34.7094 250.688 34.6737 250.446 34.5355C250.192 34.3899 250.027 34.1772 249.951 33.8973C249.884 33.6114 249.92 33.3456 250.061 33.0998ZM252.718 34.6209C252.859 34.3751 253.068 34.2163 253.345 34.1444C253.629 34.0708 253.894 34.1043 254.14 34.245C254.394 34.3906 254.557 34.6021 254.629 34.8795C254.708 35.1551 254.675 35.418 254.532 35.668C254.387 35.9222 254.174 36.0874 253.894 36.1635C253.608 36.2305 253.345 36.1948 253.103 36.0565C252.853 35.9134 252.69 35.7019 252.614 35.422C252.538 35.1422 252.573 34.8751 252.718 34.6209Z" fill="black"/>
<path d="M262.329 43.4818L263.611 44.5285L263.195 45.0391C264.002 44.9609 264.686 45.1502 265.246 45.6071C265.889 46.132 266.225 46.7434 266.254 47.4415C266.283 48.0389 265.98 48.7273 265.344 49.5065L262.579 52.894L261.297 51.8474L263.816 48.7606C264.261 48.2159 264.492 47.7777 264.511 47.4462C264.536 47.1139 264.354 46.7888 263.964 46.4708C263.541 46.125 263.126 46.0195 262.719 46.1544C262.32 46.2885 261.839 46.6998 261.277 47.3883L259.101 50.0552L257.818 49.0085L262.329 43.4818Z" fill="black"/>
<path d="M273.632 63.7798C273.379 64.0023 273.149 64.1883 272.942 64.3378C272.735 64.4941 272.545 64.6221 272.373 64.7218C271.892 64.9887 271.394 65.1213 270.879 65.1195C269.896 65.126 269.032 64.7059 268.287 63.8592C267.658 63.1445 267.332 62.3868 267.311 61.5862C267.287 60.7613 267.593 60.0041 268.229 59.3147L269.322 60.5573C269.1 60.8372 268.966 61.095 268.92 61.3308C268.812 61.8809 268.975 62.4016 269.407 62.8928C270.204 63.7981 271.157 63.7621 272.268 62.7846L273.016 62.1265C272.081 62.0773 271.332 61.732 270.767 61.0905C270.125 60.3611 269.863 59.5314 269.982 58.6013C270.104 57.6612 270.566 56.8379 271.369 56.1314C272.15 55.4443 273.005 55.0785 273.935 55.034C274.927 54.9935 275.762 55.3581 276.439 56.1278C277.033 56.8023 277.275 57.584 277.167 58.4732L277.772 57.9409L278.86 59.178L273.632 63.7798ZM275.127 60.3566C275.647 59.8985 275.941 59.3931 276.007 58.8403C276.077 58.2774 275.919 57.776 275.532 57.3362C275.119 56.867 274.619 56.65 274.032 56.6853C273.505 56.7139 272.993 56.9459 272.498 57.3814C272.011 57.8105 271.719 58.2849 271.624 58.8047C271.519 59.3723 271.674 59.8925 272.09 60.3653C272.506 60.8382 273.008 61.0604 273.594 61.0321C274.128 61.0108 274.639 60.7856 275.127 60.3566Z" fill="black"/>
<path d="M292.127 68.7321L292.996 70.1409L282.467 76.6353L281.598 75.2265L282.234 74.8343C281.353 74.6148 280.697 74.156 280.266 73.4578C279.754 72.6266 279.632 71.7496 279.9 70.8268C280.183 69.9004 280.788 69.1514 281.715 68.5798C282.621 68.021 283.545 67.8267 284.488 67.9968C285.432 68.1603 286.157 68.6513 286.662 69.47C287.1 70.1807 287.201 70.9959 286.966 71.9159L292.127 68.7321ZM282.6 70.0136C282.018 70.3724 281.64 70.8205 281.467 71.3578C281.294 71.9059 281.358 72.4231 281.658 72.9093C281.978 73.4288 282.416 73.7383 282.971 73.8379C283.538 73.9297 284.106 73.8001 284.676 73.4489C285.245 73.0977 285.616 72.648 285.788 72.0999C285.952 71.5569 285.877 71.0298 285.562 70.5186C285.264 70.0365 284.833 69.7462 284.267 69.6476C283.7 69.5558 283.144 69.6778 282.6 70.0136Z" fill="black"/>
<path d="M287.397 84.3726C287.648 84.2635 287.905 84.2608 288.168 84.3645C288.432 84.4682 288.619 84.6477 288.73 84.9029C288.841 85.1581 288.845 85.4174 288.741 85.6809C288.637 85.9443 288.458 86.1316 288.203 86.2426C287.943 86.3556 287.681 86.3602 287.418 86.2565C287.161 86.1553 286.976 85.9749 286.863 85.7152C286.748 85.451 286.741 85.1904 286.842 84.9334C286.944 84.6764 287.129 84.4895 287.397 84.3726ZM289.031 83.8693L297.091 80.3629L297.751 81.8808L289.692 85.3872L289.031 83.8693Z" fill="black"/>
<path d="M200.775 18.3406C203.975 15.7406 207.775 19.4239 209.275 21.5906C210.525 19.5073 214.075 16.2406 218.275 19.8406C222.475 23.4406 217.358 30.8406 214.275 34.0906L207.025 39.8406C205.608 38.2573 202.375 34.3906 200.775 31.5906C198.775 28.0906 196.775 21.5906 200.775 18.3406Z" fill="#FF0000"/>
</svg>
