<svg width="146" height="154" viewBox="0 0 146 154" fill="none" xmlns="http://www.w3.org/2000/svg">
<path d="M116.376 139.883C115.818 138.172 114.315 137.223 112.33 137.871C110.226 138.558 109.003 140.093 109.346 142.651L111.468 141.958C111.345 140.654 112.009 140.078 112.711 139.849C113.378 139.631 114.003 139.863 114.265 140.667C114.505 141.403 114.274 141.971 113.348 143.371L110.09 148.296L110.333 150.319L117.708 147.912L117.482 145.884L113.084 147.319L114.953 144.4C116.258 142.365 116.8 141.184 116.376 139.883Z" fill="white"/>
<path d="M125.416 137.218C124.858 135.507 123.28 134.677 121.432 135.28C119.789 135.816 118.221 137.275 118.571 140.265L118.95 143.455C118.982 143.729 119.065 144.099 119.138 144.322C119.696 146.033 121.29 146.857 123.138 146.254C124.781 145.718 126.333 144.265 125.982 141.275L125.604 138.085C125.571 137.811 125.488 137.441 125.416 137.218ZM123.361 138.059C123.423 138.247 123.461 138.481 123.488 138.68L123.9 142.03C124.084 143.465 123.391 144.07 122.69 144.299C122.159 144.472 121.477 144.354 121.192 143.481C121.131 143.293 121.092 143.059 121.065 142.86L120.654 139.51C120.47 138.075 121.162 137.47 121.864 137.241C122.394 137.068 123.077 137.186 123.361 138.059Z" fill="white"/>
<path d="M134.207 134.066C133.649 132.355 132.146 131.406 130.161 132.054C128.056 132.74 126.834 134.275 127.177 136.833L129.298 136.141C129.176 134.836 129.84 134.26 130.541 134.031C131.209 133.813 131.833 134.045 132.096 134.849C132.336 135.585 132.105 136.153 131.179 137.553L127.92 142.479L128.164 144.501L135.539 142.095L135.313 140.067L130.915 141.502L132.784 138.582C134.089 136.547 134.631 135.366 134.207 134.066Z" fill="white"/>
<path d="M143.247 131.401C142.688 129.689 141.111 128.86 139.263 129.463C137.62 129.999 136.051 131.457 136.402 134.448L136.78 137.638C136.813 137.911 136.896 138.282 136.968 138.504C137.527 140.216 139.121 141.04 140.969 140.437C142.612 139.901 144.164 138.448 143.813 135.457L143.435 132.267C143.402 131.994 143.319 131.623 143.247 131.401ZM141.192 132.241C141.254 132.43 141.292 132.663 141.319 132.863L141.73 136.212C141.915 137.648 141.222 138.252 140.521 138.481C139.99 138.654 139.308 138.536 139.023 137.664C138.962 137.475 138.923 137.242 138.896 137.042L138.485 133.693C138.3 132.257 138.993 131.652 139.695 131.423C140.225 131.25 140.907 131.369 141.192 132.241Z" fill="white"/>
<path d="M21.8848 20.9999C26.0618 20.9999 28.8618 18.1999 28.8618 13.977C28.8618 9.79994 26.0618 6.99994 21.8848 6.99994C17.6618 6.99994 14.8618 9.79994 14.8618 13.977C14.8618 18.1999 17.6618 20.9999 21.8848 20.9999ZM21.8848 20.0819C18.2126 20.0819 15.7798 17.6491 15.7798 13.977C15.7798 10.3508 18.2126 7.91797 21.8848 7.91797C25.511 7.91797 27.9438 10.3508 27.9438 13.977C27.9438 17.6491 25.511 20.0819 21.8848 20.0819ZM21.8389 17.8327C23.17 17.8327 24.0421 16.9606 24.0421 15.6753V14.7573H22.4356V15.6753C22.4356 15.9967 22.2061 16.2721 21.8389 16.2721C21.4717 16.2721 21.2421 15.9967 21.2421 15.6753V12.3245C21.2421 11.9573 21.4717 11.7278 21.8389 11.7278C22.2061 11.7278 22.4356 11.9573 22.4356 12.3245V13.2426H24.0421V12.3245C24.0421 10.9934 23.17 10.1672 21.8389 10.1672C20.5077 10.1672 19.6356 10.9934 19.6356 12.3245V15.6753C19.6356 16.9606 20.5077 17.8327 21.8389 17.8327Z" fill="white"/>
<path d="M30.305 43.1262C28.5361 37.7221 23.6075 33.2472 15.928 35.7608C12.2304 36.9711 9.23621 39.3682 7.41856 42.9547C5.60092 46.5411 5.52344 49.1907 6.56494 57.8244C6.85119 60.3024 7.29259 63.2545 8.00633 65.4351C9.52692 70.0807 14.315 74.2867 22.042 71.7576C25.4077 70.6559 28.5277 68.3226 30.3454 64.7361C32.2587 60.9609 32.356 57.5701 31.6292 51.9823L30.9929 47.1522L18.3833 51.2795L19.292 58.2248L24.0799 56.6576L24.1704 57.4152C24.5773 60.9034 23.0001 63.7814 20.2981 64.6658C18.6389 65.2089 16.6677 65.1193 15.7212 62.2276C15.1471 60.4736 14.6902 57.4742 14.4341 55.2487C13.8478 49.9299 13.6081 47.5941 14.6605 45.5177C15.075 44.6998 16.0127 43.3956 17.7193 42.8371C19.8999 42.1233 21.5652 43.3627 22.4358 45.7019L30.305 43.1262Z" fill="white"/>
<path d="M42.5788 27.3526L34.7096 29.9282L38.9783 65.8992L46.8474 63.3235L42.5788 27.3526Z" fill="white"/>
<path d="M73.921 27.9055C72.2142 22.6909 68.1174 18.9935 61.0541 21.3054L49.0607 25.231L53.3293 61.2019L61.1985 58.6263L59.6164 44.9736L62.6029 43.9961L70.3476 55.6316L78.9752 52.8077L69.9566 40.487C74.2988 36.7564 75.1467 31.6504 73.921 27.9055ZM66.144 30.9233C66.594 32.298 66.6243 35.4371 62.8793 36.6629L58.7551 38.0128L57.8515 30.1212L62.0231 28.7557C63.9667 28.1196 65.4613 28.8375 66.144 30.9233Z" fill="white"/>
<path d="M103.637 37.0731L89.9369 41.5572L86.5115 12.9729L78.6423 15.5485L82.9109 51.5195L104.527 44.4441L103.637 37.0731Z" fill="white"/>
<path d="M126.565 4.21899C123.532 2.16774 119.306 1.92397 115.087 3.30491C106.981 5.95817 102.703 12.2917 105.124 19.6868C105.977 22.2941 108.308 25.8873 115.708 25.4069L118.485 25.2327C120.489 25.1017 121.686 25.3921 122.276 27.1935C122.912 29.137 121.195 31.5884 118.114 32.5969C115.175 33.5589 112.556 33.5763 110.277 32.2232L106.217 39.0626C110.258 41.4663 114.043 41.6446 119.684 39.7982C126.889 37.4397 132.598 31.95 129.929 23.7964C128.346 18.9611 125.503 16.8478 119.081 17.2704L116.303 17.4446C114.805 17.5153 113.163 17.6326 112.574 15.8312C112.015 14.1246 113.212 11.5285 116.436 10.4734C118.664 9.74414 120.652 9.56565 122.649 10.8541L126.565 4.21899Z" fill="white"/>
<path d="M70.2187 69.6949C68.5585 64.6226 63.3412 61.0294 56.3727 63.3103C53.244 64.3344 49.855 66.8082 48.0693 70.3317C45.9646 74.4845 46.4604 79.0458 47.1993 85.3118C47.6062 88.8 48.0967 91.4211 48.5932 92.938C50.2535 98.0103 55.4708 101.603 62.4393 99.3226C65.568 98.2985 68.9569 95.8247 70.7427 92.3011C72.8473 88.1483 72.3516 83.5871 71.6127 77.321C71.2057 73.8329 70.7152 71.2118 70.2187 69.6949ZM62.4719 72.9652C63.046 74.7192 63.4866 77.829 63.7435 79.8967C64.4358 86.0206 64.3937 87.9763 63.7232 89.4553C63.1802 90.6827 62.1649 91.7498 60.8376 92.1842C58.9414 92.8049 57.1003 91.9905 56.34 89.6676C55.7659 87.9136 55.3254 84.8039 55.0684 82.7362C54.3761 76.6123 54.4183 74.6566 55.0888 73.1775C55.6317 71.9501 56.647 70.8831 57.9744 70.4486C59.8706 69.828 61.7116 70.6424 62.4719 72.9652Z" fill="white"/>
<path d="M100.097 49.3137L92.2278 51.8894L94.4764 70.6247L81.5143 55.396L74.9725 57.5372L79.2411 93.5082L87.1103 90.9325L84.9247 72.2291L97.8238 87.4259L104.366 85.2846L100.097 49.3137Z" fill="white"/>
<path d="M44.5608 113.599C41.5276 111.547 37.3017 111.304 33.0826 112.685C24.9764 115.338 20.699 121.671 23.1195 129.067C23.9729 131.674 26.3036 135.267 33.704 134.787L36.4811 134.612C38.485 134.481 39.6823 134.772 40.2719 136.573C40.908 138.517 39.1912 140.968 36.1099 141.977C33.1708 142.939 30.5523 142.956 28.2725 141.603L24.2131 148.442C28.2538 150.846 32.0385 151.024 37.6797 149.178C44.8852 146.819 50.5935 141.33 47.9247 133.176C46.342 128.341 43.4985 126.228 37.0764 126.65L34.2993 126.824C32.8004 126.895 31.1594 127.012 30.5698 125.211C30.0112 123.504 31.2083 120.908 34.4318 119.853C36.6598 119.124 38.6482 118.945 40.6445 120.234L44.5608 113.599Z" fill="white"/>
<path d="M76.287 98.8582L66.569 102.039L58.9115 117.929L57.3725 105.049L49.5981 107.594L53.8668 143.565L61.6411 141.02L60.2211 129.466L62.6585 125.047L72.7812 137.374L81.4089 134.55L67.3979 117.88L76.287 98.8582Z" fill="white"/>
<path d="M88.0211 95.0175L80.152 97.5932L84.4206 133.564L92.2898 130.988L88.0211 95.0175Z" fill="white"/>
<path d="M116.27 90.1275C113.237 88.0763 109.011 87.8325 104.792 89.2134C96.6853 91.8667 92.4079 98.2002 94.8284 105.595C95.6818 108.203 98.0125 111.796 105.413 111.315L108.19 111.141C110.194 111.01 111.391 111.301 111.981 113.102C112.617 115.046 110.9 117.497 107.819 118.505C104.88 119.467 102.261 119.485 99.9814 118.132L95.922 124.971C99.9627 127.375 103.747 127.553 109.389 125.707C116.594 123.348 122.302 117.859 119.634 109.705C118.051 104.87 115.207 102.756 108.785 103.179L106.008 103.353C104.509 103.424 102.868 103.541 102.279 101.74C101.72 100.033 102.917 97.437 106.141 96.3819C108.369 95.6527 110.357 95.4742 112.353 96.7627L116.27 90.1275Z" fill="white"/>
</svg>
